<svg width="273" height="48" viewBox="0 0 273 48" fill="none" xmlns="http://www.w3.org/2000/svg">
<g filter="url(#filter0_d_142_5367)">
<path d="M4 20C4 8.95431 12.9543 0 24 0H249C260.046 0 269 8.95431 269 20C269 31.0457 260.046 40 249 40H24C12.9543 40 4 31.0457 4 20Z" fill="white"/>
<path d="M4.5 20C4.5 9.23045 13.2304 0.5 24 0.5H249C259.77 0.5 268.5 9.23045 268.5 20C268.5 30.7696 259.77 39.5 249 39.5H24C13.2304 39.5 4.5 30.7696 4.5 20Z" stroke="black"/>
</g>
<defs>
<filter id="filter0_d_142_5367" x="0" y="0" width="273" height="48" filterUnits="userSpaceOnUse" color-interpolation-filters="sRGB">
<feFlood flood-opacity="0" result="BackgroundImageFix"/>
<feColorMatrix in="SourceAlpha" type="matrix" values="0 0 0 0 0 0 0 0 0 0 0 0 0 0 0 0 0 0 127 0" result="hardAlpha"/>
<feOffset dy="4"/>
<feGaussianBlur stdDeviation="2"/>
<feComposite in2="hardAlpha" operator="out"/>
<feColorMatrix type="matrix" values="0 0 0 0 0 0 0 0 0 0 0 0 0 0 0 0 0 0 0.25 0"/>
<feBlend mode="normal" in2="BackgroundImageFix" result="effect1_dropShadow_142_5367"/>
<feBlend mode="normal" in="SourceGraphic" in2="effect1_dropShadow_142_5367" result="shape"/>
</filter>
</defs>
</svg>
