<svg width="274" height="48" viewBox="0 0 274 48" fill="none" xmlns="http://www.w3.org/2000/svg">
<g filter="url(#filter0_d_76_294)">
<path d="M4.39185 20.0069C4.39185 8.96116 13.3462 0.0068512 24.3918 0.0068512H249.392C260.438 0.0068512 269.392 8.96116 269.392 20.0069C269.392 31.0525 260.438 40.0069 249.392 40.0069H24.3918C13.3462 40.0069 4.39185 31.0525 4.39185 20.0069Z" fill="white"/>
<path d="M4.89185 20.0069C4.89185 9.2373 13.6223 0.506851 24.3918 0.506851H249.392C260.161 0.506851 268.892 9.2373 268.892 20.0069C268.892 30.7764 260.161 39.5069 249.392 39.5069H24.3918C13.6223 39.5069 4.89185 30.7764 4.89185 20.0069Z" stroke="black"/>
</g>
<defs>
<filter id="filter0_d_76_294" x="0.391846" y="0.0068512" width="273" height="48" filterUnits="userSpaceOnUse" color-interpolation-filters="sRGB">
<feFlood flood-opacity="0" result="BackgroundImageFix"/>
<feColorMatrix in="SourceAlpha" type="matrix" values="0 0 0 0 0 0 0 0 0 0 0 0 0 0 0 0 0 0 127 0" result="hardAlpha"/>
<feOffset dy="4"/>
<feGaussianBlur stdDeviation="2"/>
<feComposite in2="hardAlpha" operator="out"/>
<feColorMatrix type="matrix" values="0 0 0 0 0 0 0 0 0 0 0 0 0 0 0 0 0 0 0.25 0"/>
<feBlend mode="normal" in2="BackgroundImageFix" result="effect1_dropShadow_76_294"/>
<feBlend mode="normal" in="SourceGraphic" in2="effect1_dropShadow_76_294" result="shape"/>
</filter>
</defs>
</svg>
