<svg width="23" height="32" viewBox="0 0 23 32" fill="none" xmlns="http://www.w3.org/2000/svg">
<path fill-rule="evenodd" clip-rule="evenodd" d="M11.5006 0.149414C15.1414 0.149414 18.0929 2.91071 18.0929 6.31694V15.9109C18.0929 19.3171 15.1414 22.0784 11.5006 22.0784C7.8597 22.0784 4.9082 19.3171 4.9082 15.9109V6.31694C4.9082 2.91071 7.8597 0.149414 11.5006 0.149414ZM0.878981 14.3051C1.31588 14.3051 1.67834 14.6034 1.74646 14.9941L1.75796 15.1275V15.3083C1.75796 20.4343 6.12283 24.5843 11.5 24.5843C16.7628 24.5843 21.0558 20.609 21.2361 15.6342L21.242 15.3083V15.1417C21.242 14.6876 21.6356 14.3194 22.121 14.3194C22.5579 14.3194 22.9204 14.6176 22.9885 15.0084L23 15.1417L22.9945 15.6483C22.8144 21.2411 18.2046 25.7797 12.3788 26.1976L12.379 30.9871C12.379 31.4413 11.9854 31.8094 11.5 31.8094C11.0631 31.8094 10.7006 31.5112 10.6325 31.1205L10.621 30.9871L10.6217 26.1977C4.79937 25.7802 0.191469 21.247 0.00581615 15.6589L0 15.1275C0 14.6733 0.393533 14.3051 0.878981 14.3051ZM6.66602 6.31708C6.66602 3.81918 8.83045 1.79423 11.5004 1.79423C14.1704 1.79423 16.3348 3.81918 16.3348 6.31708V15.911C16.3348 18.4089 14.1704 20.4339 11.5004 20.4339C8.83045 20.4339 6.66602 18.4089 6.66602 15.911V6.31708Z" fill="black"/>
</svg>
