<svg width="23" height="32" viewBox="0 0 23 32" fill="none" xmlns="http://www.w3.org/2000/svg">
<path fill-rule="evenodd" clip-rule="evenodd" d="M11.5001 0C15.1409 0 18.0924 2.73151 18.0924 6.101V15.5915C18.0924 18.9609 15.1409 21.6925 11.5001 21.6925C7.85921 21.6925 4.90771 18.9609 4.90771 15.5915V6.101C4.90771 2.73151 7.85921 0 11.5001 0ZM0.878981 14.0029C1.31588 14.0029 1.67834 14.2979 1.74646 14.6844L1.75796 14.8163V14.9952C1.75796 20.0659 6.12283 24.1712 11.5 24.1712C16.7628 24.1712 21.0558 20.2387 21.2361 15.3175L21.242 14.9952V14.8304C21.242 14.3812 21.6356 14.017 22.121 14.017C22.5579 14.017 22.9204 14.312 22.9885 14.6985L23 14.8304L22.9945 15.3315C22.8144 20.864 18.2046 25.3537 12.3788 25.7671L12.379 30.5049C12.379 30.9542 11.9854 31.3184 11.5 31.3184C11.0631 31.3184 10.7006 31.0233 10.6325 30.6368L10.621 30.5049L10.6217 25.7671C4.79937 25.3542 0.191469 20.8699 0.00581615 15.342L0 14.8163C0 14.3671 0.393533 14.0029 0.878981 14.0029ZM6.66596 6.10127C6.66596 3.63031 8.83039 1.6272 11.5004 1.6272C14.1703 1.6272 16.3347 3.63031 16.3347 6.10127V15.5917C16.3347 18.0627 14.1703 20.0658 11.5004 20.0658C8.83039 20.0658 6.66596 18.0627 6.66596 15.5917V6.10127Z" fill="black"/>
</svg>
