<svg width="51" height="31" viewBox="0 0 51 31" fill="none" xmlns="http://www.w3.org/2000/svg">
<g clip-path="url(#clip0_169_5662)">
<path d="M15.9139 1.09053L15.9144 1.0905C17.5043 0.999131 19.0949 0.999601 20.7208 1.00008C20.8387 1.00012 20.9568 1.00015 21.075 1.00015H21.0752H21.0755H21.0761H21.0769H21.0779H21.079H21.0804H21.0819H21.0837H21.0856H21.0878H21.0901H21.0926H21.0953H21.0983H21.1013H21.1046H21.1081H21.1118H21.1156H21.1196H21.1239H21.1283H21.1328H21.1376H21.1425H21.1477H21.153H21.1585H21.1641H21.17H21.176H21.1822H21.1886H21.1951H21.2018H21.2087H21.2158H21.223H21.2304H21.238H21.2457H21.2537H21.2617H21.27H21.2784H21.287H21.2957H21.3046H21.3137H21.3229H21.3323H21.3419H21.3516H21.3615H21.3715H21.3817H21.392H21.4025H21.4132H21.424H21.4349H21.446H21.4573H21.4687H21.4803H21.492H21.5039H21.5159H21.528H21.5403H21.5528H21.5654H21.5781H21.591H21.604H21.6172H21.6305H21.6439H21.6575H21.6712H21.6851H21.6991H21.7132H21.7275H21.7419H21.7564H21.7711H21.7859H21.8008H21.8159H21.8311H21.8464H21.8619H21.8774H21.8931H21.909H21.9249H21.941H21.9572H21.9735H21.99H22.0065H22.0232H22.04H22.0569H22.074H22.0912H22.1084H22.1258H22.1433H22.1609H22.1787H22.1965H22.2145H22.2325H22.2507H22.269H22.2874H22.3059H22.3245H22.3432H22.3621H22.381H22.4H22.4191H22.4384H22.4577H22.4772H22.4967H22.5163H22.5361H22.5559H22.5758H22.5958H22.616H22.6362H22.6565H22.6769H22.6974H22.718H22.7386H22.7594H22.7802H22.8012H22.8222H22.8433H22.8645H22.8858H22.9072H22.9286H22.9501H22.9718H22.9935H23.0152H23.0371H23.059H23.081H23.1031H23.1253H23.1475H23.1698H23.1922H23.2147H23.2372H23.2598H23.2825H23.3052H23.328H23.3509H23.3739H23.3969H23.42H23.4431H23.4663H23.4896H23.513H23.5364H23.5598H23.5833H23.6069H23.6306H23.6543H23.678H23.7018H23.7257H23.7496H23.7736H23.7976H23.8217H23.8458H23.87H23.8943H23.9185H23.9429H23.9673H23.9917H24.0162H24.0407H24.0653H24.0899H24.1145H24.1392H24.1639H24.1887H24.2135H24.2384H24.2633H24.2882H24.3132H24.3382H24.3632H24.3883H24.4134H24.4386H24.4637H24.4889H24.5142H24.5394H24.5647H24.5901H24.6154H24.6408H24.6662H24.6916H24.7171H24.7425H24.768H24.7936H24.8191H24.8447H24.8702H24.8958H24.9215H24.9471H24.9728H24.9984H25.0241H25.0498H25.0755H25.1012H25.127H25.1527H25.1785H25.2042H25.23H25.2558H25.2816H25.3073H25.3331H25.3589H25.3848H25.4106H25.4364H25.4622H25.488H25.5138H25.5396H25.5654H25.5912H25.6171H25.6429H25.6686H25.6944H25.7202H25.746H25.7718H25.7975H25.8233H25.849H25.8747H25.9005H25.9262H25.9519H25.9775H26.0032H26.0288H26.0545H26.0801H26.1057H26.1312H26.1568H26.1823H26.2078H26.2333H26.2588H26.2842H26.3097H26.3351H26.3604H26.3858H26.4111H26.4364H26.4616H26.4868H26.512H26.5372H26.5623H26.5874H26.6125H26.6375H26.6625H26.6875H26.7124H26.7373H26.7621H26.7869H26.8117H26.8364H26.8611H26.8857H26.9103H26.9349H26.9594H26.9838H27.0082H27.0326H27.0569H27.0812H27.1054H27.1296H27.1537H27.1778H27.2018H27.2257H27.2496H27.2735H27.2973H27.321H27.3447H27.3683H27.3919H27.4154H27.4388H27.4622H27.4855H27.5088H27.5319H27.5551H27.5781H27.6011H27.6241H27.6469H27.6697H27.6924H27.7151H27.7377H27.7602H27.7826H27.805H27.8272H27.8495H27.8716H27.8937H27.9156H27.9375H27.9594H27.9811H28.0028H28.0244H28.0459H28.0673H28.0886H28.1099H28.1311H28.1521H28.1731H28.194H28.2149H28.2356H28.2562H28.2768H28.2972H28.3176H28.3379H28.3581H28.3781H28.3981H28.418H28.4378H28.4575H28.4771H28.4966H28.516H28.5353H28.5545H28.5736H28.5926H28.6115H28.6303H28.649H28.6675H28.686H28.7044H28.7226H28.7408H28.7588H28.7767H28.7945H28.8122H28.8298H28.8473H28.8646H28.8818H28.899H28.916H28.9328H28.9496H28.9663H28.9828H28.9992H29.0155H29.0316H29.0477H29.0636H29.0793H29.095H29.1105H29.1259H29.1412H29.1564H29.1714H29.1863H29.201H29.2156H29.2301H29.2445H29.2587H29.2728H29.2867H29.3006H29.3142H29.3278H29.3412H29.3544H29.3675H29.3805H29.3933H29.406H29.4186H29.431H29.4432H29.4553H29.4673H29.4791H29.4908H29.5023H29.5136H29.5248H29.5359H29.5468H29.5576H29.5682H29.5786H29.5889H29.599H29.609H29.6188H29.6285H29.638H29.6473H29.6565H29.6655H29.6743H29.683H29.6915H29.6999H29.7081H29.7161H29.724H29.7317H29.7392H29.7465H29.7537H29.7607H29.7675H29.7742H29.7807H29.787H29.7931H29.7991H29.8049H29.8105H29.8159H29.8211H29.8262H29.8311H29.8358H29.8403H29.8446H29.8488H29.8527H29.8565H29.8601H29.8635H29.8667H29.8698H29.8726H29.8753H29.8777H29.88H29.8821H29.8839H29.8856H29.8871H29.8884H29.8895H29.8904H29.8911H29.8916H29.8919C29.892 1.00015 29.892 1.00015 29.892 0.0001522V1.00015C30.0127 1.00015 30.133 1.00012 30.253 1.00008C31.9064 0.999602 33.4968 0.999139 35.0856 1.0905L35.0862 1.09054C36.6246 1.17811 38.0875 1.36317 39.5275 1.76616L39.5278 1.76624C42.5497 2.61091 45.1814 4.37204 47.0839 6.86656L47.084 6.86675C48.9758 9.34623 50 12.382 50 15.4992C50 18.6203 48.9758 21.6541 47.084 24.1336L47.084 24.1336C45.1814 26.6274 42.5496 28.3894 39.5278 29.2341L39.5275 29.2341C38.0877 29.6371 36.625 29.8212 35.0855 29.9098C33.5095 30.0004 31.9321 29.9998 30.3193 29.9993C30.1884 29.9992 30.0573 29.9992 29.926 29.9992L25.5119 29.9997L22.4832 30L21.4853 30.0001L21.2058 30.0001L21.1322 30.0002L21.1133 30.0002H21.1085H21.1076C20.9597 30.0001 20.8124 30.0001 20.6655 30C19.042 29.9998 17.4782 29.9997 15.9145 29.9098C14.3761 29.8212 12.9133 29.6371 11.4735 29.2341L11.4732 29.2341C8.45143 28.3894 5.81959 26.6274 3.91704 24.1336L3.91701 24.1336C2.02502 21.6539 1 18.62 1 15.5002C1 12.3822 2.02507 9.34636 3.91701 6.86675L3.91715 6.86656C5.81956 4.37204 8.45128 2.61091 11.4732 1.76624L11.4735 1.76616C12.9136 1.36316 14.3764 1.17811 15.9139 1.09053Z" stroke="white" stroke-width="2"/>
<mask id="mask0_169_5662" style="mask-type:luminance" maskUnits="userSpaceOnUse" x="0" y="0" width="51" height="32">
<path fill-rule="evenodd" clip-rule="evenodd" d="M15.857 0.0921522C17.597 -0.0078478 19.335 0.0001522 21.075 0.0001522C21.087 0.0001522 29.892 0.0001522 29.892 0.0001522C31.666 0.0001522 33.404 -0.0078478 35.143 0.0921522C36.724 0.182152 38.264 0.374152 39.797 0.803152C43.024 1.70515 45.842 3.58915 47.879 6.26015C49.904 8.91415 51 12.1632 51 15.4992C51 18.8392 49.904 22.0862 47.879 24.7402C45.842 27.4102 43.024 29.2952 39.797 30.1972C38.264 30.6262 36.724 30.8172 35.143 30.9082C33.404 31.0082 31.666 30.9992 29.926 30.9992C29.914 30.9992 21.107 31.0002 21.107 31.0002C19.335 30.9992 17.597 31.0082 15.857 30.9082C14.277 30.8172 12.737 30.6262 11.204 30.1972C7.977 29.2952 5.159 27.4102 3.122 24.7402C1.097 22.0862 0 18.8392 0 15.5002C0 12.1632 1.097 8.91415 3.122 6.26015C5.159 3.58915 7.977 1.70515 11.204 0.803152C12.737 0.374152 14.277 0.182152 15.857 0.0921522Z" fill="white"/>
<path d="M15.9139 1.09053L15.9144 1.0905C17.5043 0.999131 19.0949 0.999601 20.7208 1.00008C20.8387 1.00012 20.9568 1.00015 21.075 1.00015H21.0752H21.0755H21.0761H21.0769H21.0779H21.079H21.0804H21.0819H21.0837H21.0856H21.0878H21.0901H21.0926H21.0953H21.0983H21.1013H21.1046H21.1081H21.1118H21.1156H21.1196H21.1239H21.1283H21.1328H21.1376H21.1425H21.1477H21.153H21.1585H21.1641H21.17H21.176H21.1822H21.1886H21.1951H21.2018H21.2087H21.2158H21.223H21.2304H21.238H21.2457H21.2537H21.2617H21.27H21.2784H21.287H21.2957H21.3046H21.3137H21.3229H21.3323H21.3419H21.3516H21.3615H21.3715H21.3817H21.392H21.4025H21.4132H21.424H21.4349H21.446H21.4573H21.4687H21.4803H21.492H21.5039H21.5159H21.528H21.5403H21.5528H21.5654H21.5781H21.591H21.604H21.6172H21.6305H21.6439H21.6575H21.6712H21.6851H21.6991H21.7132H21.7275H21.7419H21.7564H21.7711H21.7859H21.8008H21.8159H21.8311H21.8464H21.8619H21.8774H21.8931H21.909H21.9249H21.941H21.9572H21.9735H21.99H22.0065H22.0232H22.04H22.0569H22.074H22.0912H22.1084H22.1258H22.1433H22.1609H22.1787H22.1965H22.2145H22.2325H22.2507H22.269H22.2874H22.3059H22.3245H22.3432H22.3621H22.381H22.4H22.4191H22.4384H22.4577H22.4772H22.4967H22.5163H22.5361H22.5559H22.5758H22.5958H22.616H22.6362H22.6565H22.6769H22.6974H22.718H22.7386H22.7594H22.7802H22.8012H22.8222H22.8433H22.8645H22.8858H22.9072H22.9286H22.9501H22.9718H22.9935H23.0152H23.0371H23.059H23.081H23.1031H23.1253H23.1475H23.1698H23.1922H23.2147H23.2372H23.2598H23.2825H23.3052H23.328H23.3509H23.3739H23.3969H23.42H23.4431H23.4663H23.4896H23.513H23.5364H23.5598H23.5833H23.6069H23.6306H23.6543H23.678H23.7018H23.7257H23.7496H23.7736H23.7976H23.8217H23.8458H23.87H23.8943H23.9185H23.9429H23.9673H23.9917H24.0162H24.0407H24.0653H24.0899H24.1145H24.1392H24.1639H24.1887H24.2135H24.2384H24.2633H24.2882H24.3132H24.3382H24.3632H24.3883H24.4134H24.4386H24.4637H24.4889H24.5142H24.5394H24.5647H24.5901H24.6154H24.6408H24.6662H24.6916H24.7171H24.7425H24.768H24.7936H24.8191H24.8447H24.8702H24.8958H24.9215H24.9471H24.9728H24.9984H25.0241H25.0498H25.0755H25.1012H25.127H25.1527H25.1785H25.2042H25.23H25.2558H25.2816H25.3073H25.3331H25.3589H25.3848H25.4106H25.4364H25.4622H25.488H25.5138H25.5396H25.5654H25.5912H25.6171H25.6429H25.6686H25.6944H25.7202H25.746H25.7718H25.7975H25.8233H25.849H25.8747H25.9005H25.9262H25.9519H25.9775H26.0032H26.0288H26.0545H26.0801H26.1057H26.1312H26.1568H26.1823H26.2078H26.2333H26.2588H26.2842H26.3097H26.3351H26.3604H26.3858H26.4111H26.4364H26.4616H26.4868H26.512H26.5372H26.5623H26.5874H26.6125H26.6375H26.6625H26.6875H26.7124H26.7373H26.7621H26.7869H26.8117H26.8364H26.8611H26.8857H26.9103H26.9349H26.9594H26.9838H27.0082H27.0326H27.0569H27.0812H27.1054H27.1296H27.1537H27.1778H27.2018H27.2257H27.2496H27.2735H27.2973H27.321H27.3447H27.3683H27.3919H27.4154H27.4388H27.4622H27.4855H27.5088H27.5319H27.5551H27.5781H27.6011H27.6241H27.6469H27.6697H27.6924H27.7151H27.7377H27.7602H27.7826H27.805H27.8272H27.8495H27.8716H27.8937H27.9156H27.9375H27.9594H27.9811H28.0028H28.0244H28.0459H28.0673H28.0886H28.1099H28.1311H28.1521H28.1731H28.194H28.2149H28.2356H28.2562H28.2768H28.2972H28.3176H28.3379H28.3581H28.3781H28.3981H28.418H28.4378H28.4575H28.4771H28.4966H28.516H28.5353H28.5545H28.5736H28.5926H28.6115H28.6303H28.649H28.6675H28.686H28.7044H28.7226H28.7408H28.7588H28.7767H28.7945H28.8122H28.8298H28.8473H28.8646H28.8818H28.899H28.916H28.9328H28.9496H28.9663H28.9828H28.9992H29.0155H29.0316H29.0477H29.0636H29.0793H29.095H29.1105H29.1259H29.1412H29.1564H29.1714H29.1863H29.201H29.2156H29.2301H29.2445H29.2587H29.2728H29.2867H29.3006H29.3142H29.3278H29.3412H29.3544H29.3675H29.3805H29.3933H29.406H29.4186H29.431H29.4432H29.4553H29.4673H29.4791H29.4908H29.5023H29.5136H29.5248H29.5359H29.5468H29.5576H29.5682H29.5786H29.5889H29.599H29.609H29.6188H29.6285H29.638H29.6473H29.6565H29.6655H29.6743H29.683H29.6915H29.6999H29.7081H29.7161H29.724H29.7317H29.7392H29.7465H29.7537H29.7607H29.7675H29.7742H29.7807H29.787H29.7931H29.7991H29.8049H29.8105H29.8159H29.8211H29.8262H29.8311H29.8358H29.8403H29.8446H29.8488H29.8527H29.8565H29.8601H29.8635H29.8667H29.8698H29.8726H29.8753H29.8777H29.88H29.8821H29.8839H29.8856H29.8871H29.8884H29.8895H29.8904H29.8911H29.8916H29.8919C29.892 1.00015 29.892 1.00015 29.892 0.0001522V1.00015C30.0127 1.00015 30.133 1.00012 30.253 1.00008C31.9064 0.999602 33.4968 0.999139 35.0856 1.0905L35.0862 1.09054C36.6246 1.17811 38.0875 1.36317 39.5275 1.76616L39.5278 1.76624C42.5497 2.61091 45.1814 4.37204 47.0839 6.86656L47.084 6.86675C48.9758 9.34623 50 12.382 50 15.4992C50 18.6203 48.9758 21.6541 47.084 24.1336L47.084 24.1336C45.1814 26.6274 42.5496 28.3894 39.5278 29.2341L39.5275 29.2341C38.0877 29.6371 36.625 29.8212 35.0855 29.9098C33.5095 30.0004 31.9321 29.9998 30.3193 29.9993C30.1884 29.9992 30.0573 29.9992 29.926 29.9992L25.5119 29.9997L22.4832 30L21.4853 30.0001L21.2058 30.0001L21.1322 30.0002L21.1133 30.0002H21.1085H21.1076C20.9597 30.0001 20.8124 30.0001 20.6655 30C19.042 29.9998 17.4782 29.9997 15.9145 29.9098C14.3761 29.8212 12.9133 29.6371 11.4735 29.2341L11.4732 29.2341C8.45143 28.3894 5.81959 26.6274 3.91704 24.1336L3.91701 24.1336C2.02502 21.6539 1 18.62 1 15.5002C1 12.3822 2.02507 9.34636 3.91701 6.86675L3.91715 6.86656C5.81956 4.37204 8.45128 2.61091 11.4732 1.76624L11.4735 1.76616C12.9136 1.36316 14.3764 1.17811 15.9139 1.09053Z" stroke="white" stroke-width="2"/>
</mask>
<g mask="url(#mask0_169_5662)">
<g filter="url(#filter0_dd_169_5662)">
<path fill-rule="evenodd" clip-rule="evenodd" d="M15.5 29C22.9558 29 29 22.9558 29 15.5C29 8.04416 22.9558 2 15.5 2C8.04416 2 2 8.04416 2 15.5C2 22.9558 8.04416 29 15.5 29Z" fill="white"/>
<path d="M15.5 29.25C23.0939 29.25 29.25 23.0939 29.25 15.5C29.25 7.90609 23.0939 1.75 15.5 1.75C7.90609 1.75 1.75 7.90609 1.75 15.5C1.75 23.0939 7.90609 29.25 15.5 29.25Z" stroke="black" stroke-opacity="0.04" stroke-width="0.5"/>
</g>
</g>
</g>
<defs>
<filter id="filter0_dd_169_5662" x="-6.5" y="-3.5" width="44" height="44" filterUnits="userSpaceOnUse" color-interpolation-filters="sRGB">
<feFlood flood-opacity="0" result="BackgroundImageFix"/>
<feColorMatrix in="SourceAlpha" type="matrix" values="0 0 0 0 0 0 0 0 0 0 0 0 0 0 0 0 0 0 127 0" result="hardAlpha"/>
<feOffset dy="3"/>
<feGaussianBlur stdDeviation="0.5"/>
<feColorMatrix type="matrix" values="0 0 0 0 0 0 0 0 0 0 0 0 0 0 0 0 0 0 0.06 0"/>
<feBlend mode="normal" in2="BackgroundImageFix" result="effect1_dropShadow_169_5662"/>
<feColorMatrix in="SourceAlpha" type="matrix" values="0 0 0 0 0 0 0 0 0 0 0 0 0 0 0 0 0 0 127 0" result="hardAlpha"/>
<feOffset dy="3"/>
<feGaussianBlur stdDeviation="4"/>
<feColorMatrix type="matrix" values="0 0 0 0 0 0 0 0 0 0 0 0 0 0 0 0 0 0 0.2 0"/>
<feBlend mode="normal" in2="effect1_dropShadow_169_5662" result="effect2_dropShadow_169_5662"/>
<feBlend mode="normal" in="SourceGraphic" in2="effect2_dropShadow_169_5662" result="shape"/>
</filter>
<clipPath id="clip0_169_5662">
<rect width="51" height="31" fill="white"/>
</clipPath>
</defs>
</svg>
