<svg width="472" height="211" viewBox="0 0 472 211" fill="none" xmlns="http://www.w3.org/2000/svg">
<path d="M43.5 12.4999C43.5 5.87252 48.8726 0.499939 55.5 0.499939H143H230.5C237.127 0.499939 242.5 5.87252 242.5 12.4999C242.5 19.1274 237.127 24.4999 230.5 24.4999H55.5C48.8726 24.4999 43.5 19.1274 43.5 12.4999Z" fill="white" stroke="black"/>
<path d="M43.5 60.4999C43.5 53.8725 48.8726 48.4999 55.5 48.4999H143H230.5C237.127 48.4999 242.5 53.8725 242.5 60.4999C242.5 67.1274 237.127 72.4999 230.5 72.4999H55.5C48.8726 72.4999 43.5 67.1274 43.5 60.4999Z" fill="white" stroke="black"/>
<path d="M0.5 154.5C0.5 123.572 25.5721 98.4999 56.5 98.4999H236H415.5C446.428 98.4999 471.5 123.572 471.5 154.5C471.5 185.428 446.428 210.5 415.5 210.5H56.5C25.5721 210.5 0.5 185.428 0.5 154.5Z" fill="white" stroke="black"/>
</svg>
