<svg width="39" height="41" viewBox="0 0 39 41" fill="none" xmlns="http://www.w3.org/2000/svg">
<path d="M34.3292 22.3037C34.4125 21.6719 34.4542 21.019 34.4542 20.324C34.4542 19.6501 34.4125 18.9762 34.3083 18.3443L38.5375 15.0168C38.9125 14.7219 39.0167 14.1533 38.7875 13.7321L34.7875 6.74001C34.5375 6.27668 34.0167 6.12926 33.5583 6.27668L28.5792 8.29849C27.5375 7.49819 26.4333 6.82425 25.2042 6.3188L24.4542 0.969437C24.3708 0.463985 23.9542 0.105957 23.4542 0.105957H15.4542C14.9542 0.105957 14.5583 0.463985 14.475 0.969437L13.725 6.3188C12.4958 6.82425 11.3708 7.51925 10.35 8.29849L5.37083 6.27668C4.9125 6.1082 4.39167 6.27668 4.14167 6.74001L0.162501 13.7321C-0.0874993 14.1744 -0.00416619 14.7219 0.4125 15.0168L4.64167 18.3443C4.5375 18.9762 4.45417 19.6712 4.45417 20.324C4.45417 20.9769 4.49583 21.6719 4.6 22.3037L0.370834 25.6313C-0.00416613 25.9261 -0.108333 26.4947 0.120834 26.916L4.12083 33.908C4.37083 34.3714 4.89167 34.5188 5.35 34.3714L10.3292 32.3496C11.3708 33.1499 12.475 33.8238 13.7042 34.3293L14.4542 39.6786C14.5583 40.1841 14.9542 40.5421 15.4542 40.5421H23.4542C23.9542 40.5421 24.3708 40.1841 24.4333 39.6786L25.1833 34.3293C26.4125 33.8238 27.5375 33.1499 28.5583 32.3496L33.5375 34.3714C33.9958 34.5399 34.5167 34.3714 34.7667 33.908L38.7667 26.916C39.0167 26.4526 38.9125 25.9261 38.5167 25.6313L34.3292 22.3037ZM19.4542 27.9058C15.3292 27.9058 11.9542 24.494 11.9542 20.324C11.9542 16.154 15.3292 12.7422 19.4542 12.7422C23.5792 12.7422 26.9542 16.154 26.9542 20.324C26.9542 24.494 23.5792 27.9058 19.4542 27.9058Z" fill="white"/>
</svg>
