<svg width="41" height="40" viewBox="0 0 41 40" fill="none" xmlns="http://www.w3.org/2000/svg">
<path d="M35.7351 21.9583C35.8199 21.3333 35.8623 20.6875 35.8623 20C35.8623 19.3333 35.8199 18.6667 35.7139 18.0417L40.0199 14.75C40.4017 14.4583 40.5078 13.8958 40.2745 13.4792L36.2017 6.5625C35.9472 6.10417 35.4169 5.95833 34.9502 6.10417L29.8805 8.10417C28.8199 7.3125 27.6957 6.64583 26.4442 6.14583L25.6805 0.854166C25.5957 0.354166 25.1714 0 24.6623 0H16.5169C16.0078 0 15.6048 0.354166 15.5199 0.854166L14.7563 6.14583C13.5048 6.64583 12.3593 7.33333 11.3199 8.10417L6.25022 6.10417C5.78356 5.9375 5.25325 6.10417 4.99871 6.5625L0.947194 13.4792C0.692648 13.9167 0.777496 14.4583 1.20174 14.75L5.5078 18.0417C5.40174 18.6667 5.31689 19.3542 5.31689 20C5.31689 20.6458 5.35931 21.3333 5.46537 21.9583L1.15931 25.25C0.777496 25.5417 0.671436 26.1042 0.904769 26.5208L4.9775 33.4375C5.23204 33.8958 5.76234 34.0417 6.22901 33.8958L11.2987 31.8958C12.3593 32.6875 13.4836 33.3542 14.7351 33.8542L15.4987 39.1458C15.6048 39.6458 16.0078 40 16.5169 40H24.6623C25.1714 40 25.5957 39.6458 25.6593 39.1458L26.423 33.8542C27.6745 33.3542 28.8199 32.6875 29.8593 31.8958L34.929 33.8958C35.3957 34.0625 35.926 33.8958 36.1805 33.4375L40.2533 26.5208C40.5078 26.0625 40.4017 25.5417 39.9987 25.25L35.7351 21.9583ZM20.5896 27.5C16.3896 27.5 12.9533 24.125 12.9533 20C12.9533 15.875 16.3896 12.5 20.5896 12.5C24.7896 12.5 28.226 15.875 28.226 20C28.226 24.125 24.7896 27.5 20.5896 27.5Z" fill="black"/>
</svg>
